<svg width="778" height="412" viewBox="0 0 778 412" fill="none" xmlns="http://www.w3.org/2000/svg">
<path d="M283.715 7.63315C284.501 6.72265 284.971 6.06075 286.046 5.47879C286.605 5.59369 286.76 5.52933 287.073 6.01595C287.861 7.24359 310.167 145.294 311.27 157.549C309.064 155.396 307.062 154.342 304.687 152.576C295.87 146.017 284.993 139.767 276.594 132.847C275.773 136.718 271.432 147.096 269.815 151.168L254.774 188.401C227.128 256.438 201.054 327.434 136.436 369.433C116.354 382.75 92.9573 390.208 68.8709 390.971C46.3043 391.84 25.9692 387.58 13.0067 367.53C10.538 363.677 8.47203 359.581 6.84127 355.307C5.96504 353.074 3.34974 346.736 4.03937 344.647C6.3083 346.445 9.08486 349.383 11.255 350.973C18.1076 355.995 29.5478 360.089 38.0103 359.257C65.839 360.959 85.7589 343.718 101.147 322.209C102.777 319.931 105.22 316.474 105.867 313.739C110.89 307.008 115.714 299.21 119.667 291.778C121.968 287.45 123.94 281.444 126.39 277.291C128.296 271.871 132.261 263.536 134.622 257.629C136.101 253.858 139.591 244.601 141.521 241.277C142.49 238.071 147.121 226.696 148.662 223.969C148.93 221.125 157.72 200.854 159.286 197.034C166.886 178.616 174.087 159.622 181.625 141.07C181.858 140.294 182.561 138.784 182.913 137.975C184.273 133.827 188.536 122.949 190.467 119.475C190.723 117.818 191.602 117.592 191.257 116.334C174.999 116.686 158.181 116.34 141.919 116.156C146.441 111.793 153.268 106.651 158.306 102.777L186.174 81.538L243.971 37.4107C256.279 28.0606 271.233 16.3764 283.715 7.63315Z" fill="#FEEC31"/>
<path d="M283.715 7.63315C284.501 6.72265 284.971 6.06075 286.046 5.47879C286.605 5.59369 286.76 5.52933 287.073 6.01595C287.861 7.24359 310.168 145.294 311.27 157.549C309.064 155.396 307.062 154.342 304.687 152.576C295.87 146.017 284.993 139.767 276.594 132.847C275.773 136.718 271.432 147.096 269.815 151.168L254.774 188.401C227.128 256.438 201.054 327.434 136.436 369.433C116.354 382.75 92.9573 390.208 68.8709 390.971C46.3043 391.84 25.9692 387.58 13.0067 367.53C10.538 363.677 8.47204 359.581 6.84128 355.307C16.7174 358.627 20.949 367.215 32.271 370.581C85.9268 386.532 130.282 351.138 157.453 308.189C176.156 278.626 188.026 246.848 201.164 214.747L246.78 101.948L274.381 34.0816C276.439 29.1795 278.574 24.3102 280.786 19.4756C282.052 16.7628 285.869 10.4759 284.654 7.93947L283.715 7.63315Z" fill="#FFD701"/>
<path d="M272.001 179.943C274.759 180.453 290.062 180.216 293.845 180.204L331.35 180.084C357.419 180.038 381.315 179.239 402.429 197.608C415.318 209.161 423.17 225.039 423.771 242.374C425.233 284.348 400.594 305.76 360.603 308.278C348.73 308.426 331.144 308.902 319.445 308.271C320.276 327.202 318.845 348.258 319.931 366.409C304.661 365.917 286.838 366.369 271.313 366.387C271.854 349.801 271.478 330.808 271.465 314.147L271.541 221.469L271.538 194.845C271.537 191.641 271.309 182.62 272.001 179.943ZM319.659 271.376C325.862 271.131 332.345 271.324 338.557 271.339C350.017 271.367 358.39 272.401 367.883 265.098C374.069 258.739 376.487 251.877 376.231 243.111C375.485 217.571 358.449 215.95 338.406 215.89C332.209 215.901 326.011 215.876 319.813 215.814C319.469 218.789 319.782 222.554 319.752 225.609C319.6 240.812 320.088 256.19 319.659 271.376Z" fill="#765FFE"/>
<path d="M585.753 180.025C589.605 179.819 594.904 180.212 598.973 180.135C612.823 179.872 627.749 180.643 641.485 179.974C643.153 182.045 646.12 187.226 647.541 189.599L659.856 210.562L674.645 235.557C676.598 238.893 680.469 245.141 681.89 248.524C686.771 238.916 692.994 229.025 698.593 219.729L722.191 180.311C738.333 179.465 757.878 180.322 774.566 180.058C770.224 188.241 763.667 198.363 758.713 206.468L729.371 254.577C721.557 266.531 713.23 280.924 705.967 293.219C704.481 295.733 704.88 325.442 704.975 331.015C705.161 341.935 704.462 355.789 705.252 366.417C694.414 365.892 681.806 366.73 670.816 366.375C666.387 366.232 660.688 366.699 656.445 365.979C655.875 365.369 655.727 364.75 655.727 363.891C655.739 348.332 655.666 332.657 655.78 317.113C655.803 314.16 656.479 296.239 655.685 294.53C652.046 286.685 645.182 276.584 640.517 269.058L617.389 231.448L596.139 196.968C592.716 191.41 589.381 185.354 585.753 180.025Z" fill="#765FFE"/>
<path d="M424.933 179.968C434.962 180.303 445.576 180.125 455.666 180.124L506.878 180.125L550.009 180.135C558.45 180.137 567.556 180.352 575.91 179.949C576.138 190.88 575.306 206.718 576.221 217.088C559.522 216.554 541.052 216.871 524.261 216.886L524.371 315.265C524.367 332.057 524.196 349.761 524.66 366.466C509.202 365.986 490.771 366.268 475.226 366.448C474.929 349.397 475.214 331.376 475.211 314.229L475.245 216.799C458.515 217.013 441.219 216.523 424.603 217.01C424.675 212.982 424.253 181.201 424.933 179.968Z" fill="#765FFE"/>
<path d="M52.801 180.278C59.441 179.827 67.0827 180.194 73.8006 180.155C87.5371 180.076 101.526 180.427 115.236 179.973C106.444 205.54 96.1324 230.75 86.5096 256.025C82.3818 266.867 66.3119 305.883 66.4685 314.484C66.5353 318.159 67.8854 322.399 70.6172 324.962C73.5153 327.681 77.4664 328.381 81.3207 328.195C91.4081 327.708 99.4563 320.864 105.867 313.739C105.22 316.474 102.777 319.931 101.147 322.209C85.7589 343.718 65.839 360.959 38.0103 359.257C35.0467 358.495 32.4754 358.219 29.6085 357.05C3.13199 345.92 0.608504 317.246 9.26032 293.077C14.3356 278.899 19.737 265.254 25.1834 251.303L52.801 180.278Z" fill="#765FFE"/>
<path d="M237.435 256.533C238.422 258.948 233.223 283.214 232.213 287.666C213.757 368.986 153.932 419.002 68.1867 398.326C67.1371 398.03 64.2021 397.32 63.6167 396.488C64.547 396.219 72.743 396.633 74.7446 396.591C137.584 395.262 186.286 351.255 216.434 297.821C221.154 289.502 225.57 281.015 229.675 272.377C231.016 269.581 235.942 258.645 237.26 256.777L237.435 256.533Z" fill="#765FFE"/>
</svg>
