<svg width="64" height="64" viewBox="0 0 64 64" fill="none" xmlns="http://www.w3.org/2000/svg">
<g clip-path="url(#clip0_1_7)">
<path d="M38.3399 18.0632C37.2362 18.0373 28.8999 18.1026 28.535 17.9722C28.672 17.545 36.249 13.2685 37.1576 12.6809C37.6673 12.3512 39.1164 11.4522 39.6861 11.1099L49.0235 5.61134C51.1307 4.39029 53.2152 3.1004 55.3475 1.90049C55.9556 1.55817 56.6375 1.08217 57.2486 0.782272L60.1136 14.8735L61.3298 20.6397C61.6035 21.9675 61.7555 23.0116 62.1119 24.3761C61.6179 24.1968 60.967 23.7816 60.4949 23.5294C59.4801 22.999 58.4792 22.4534 57.4918 21.8927C56.7217 21.4637 55.8863 20.9676 55.0709 20.606C54.8605 21.4949 54.2275 22.5609 53.8029 23.4207C52.1091 26.8532 50.2116 30.2551 48.4582 33.6635C44.9555 40.473 41.166 47.0621 34.6232 52.4726C29.4053 56.7872 22.8487 60.2171 15.0627 60.6392C12.8718 60.7619 11.3881 60.7887 9.18394 60.4746C6.57728 60.106 4.26643 58.9437 2.76222 57.2447C2.19452 56.5988 0.604629 54.2431 0.841733 53.5491L0.907263 53.5476C1.99723 54.7565 4.81855 55.6905 6.68814 55.7452C8.18341 55.8582 9.26738 55.939 10.7502 55.6652C13.6406 55.1316 15.9112 53.8509 17.9183 52.1918C18.6024 51.6264 19.1556 51.2373 19.7027 50.5581C19.6735 50.2882 20.2217 49.88 20.2384 49.7161C20.063 49.7899 20.0494 49.9208 19.789 49.9872L19.6217 49.8827C20.1386 49.5771 20.6206 49.2369 21.0622 48.8668C22.7089 47.0202 23.8799 45.4155 25.0343 43.3623C25.9797 41.6804 26.8369 40.0151 27.7459 38.3287C30.3002 33.5041 32.8039 28.6633 35.2566 23.8068L37.1054 20.1843C37.4247 19.567 37.8384 18.5517 38.3399 18.0632Z" fill="#FFE21C"/>
<path d="M21.0623 48.8668C20.7483 49.3938 20.1658 50.0944 19.7027 50.5581C19.6735 50.2882 20.2218 49.88 20.2385 49.7161C20.0631 49.7899 20.0495 49.9208 19.7891 49.9872L19.6217 49.8827C20.1386 49.5771 20.6206 49.2369 21.0623 48.8668Z" fill="#5948F3"/>
<path d="M6.68812 55.7452L6.77999 55.7188C6.81069 55.7487 5.45333 55.3437 5.24603 55.2474C-1.69103 52.0194 1.3919 46.2851 3.63082 41.8322L6.98764 35.1349C7.80748 33.4485 8.64107 31.7662 9.48842 30.0881C9.70405 29.6636 10.3076 28.3989 10.5581 28.0501C11.0517 27.9129 13.3743 27.9758 14.0406 27.9764L19.4379 27.9773C20.5385 27.9786 21.8987 28.0035 22.969 27.9492C22.6704 28.6838 22.2695 29.4567 21.9139 30.1814L20.5464 33.0029L15.8979 42.5289C15.3839 43.5817 14.8786 44.6373 14.3821 45.6951C14.0388 46.4221 13.3865 47.6054 13.3038 48.3635C12.9362 51.7355 17.1025 51.4683 19.6217 49.8827L19.789 49.9872C20.0494 49.9208 20.063 49.7899 20.2384 49.7161C20.2217 49.88 19.6735 50.2882 19.7027 50.5581C19.1556 51.2373 18.6024 51.6264 17.9183 52.1918C15.9112 53.8509 13.6406 55.1317 10.7502 55.6652C9.26736 55.939 8.1834 55.8583 6.68812 55.7452Z" fill="#775EF9"/>
<path d="M47.3193 39.9507C47.3292 39.9623 47.34 39.974 47.3491 39.986C47.4964 40.1821 46.3794 44.4913 46.2332 44.9472C44.2253 51.2066 40.244 56.8353 32.9838 60.2485C27.9817 62.6 21.8672 62.8753 16.217 62.2155C15.332 62.1122 14.4672 62.0334 13.5964 61.8652C13.2949 61.7884 13.0664 61.7394 12.7905 61.6117L12.8192 61.579C13.2376 61.5348 14.1464 61.6536 14.6977 61.6287C16.1394 61.5417 17.6595 61.4734 19.0865 61.2893C31.257 59.7212 40.1904 51.4093 45.2785 43.1608L46.4395 41.2606C46.6609 40.8955 47.0072 40.261 47.3193 39.9507Z" fill="#775EF9"/>
</g>
<defs>
<clipPath id="clip0_1_7">
<rect width="64" height="64" fill="white"/>
</clipPath>
</defs>
</svg>
